Coordinates
version=1
nRows=19
nColumns=24
inDegrees=yes

Units are S.I. units (second, meters, Newtons, ...)
Angles are in degrees.

endheader
time	pelvis_tilt	pelvis_list	pelvis_rotation	pelvis_tx	pelvis_ty	pelvis_tz	hip_flexion_r	hip_adduction_r	hip_rotation_r	knee_angle_r	ankle_angle_r	subtalar_angle_r	mtp_angle_r	hip_flexion_l	hip_adduction_l	hip_rotation_l	knee_angle_l	ankle_angle_l	subtalar_angle_l	mtp_angle_l	lumbar_extension	lumbar_bending	lumbar_rotation
      0.78766667	     -0.58353065	     -1.23690514	      1.05015192	     -0.35451521	      0.99528926	      0.30660261	     12.02072548	      5.74897920	     -4.26383579	    -17.09087809	      6.51392695	     -8.05712801	      4.94544171	     20.46214976	     -1.72312276	     -0.29878596	    -69.79619916	     -4.33798738	     -8.60510156	      0.79296124	     -0.31283077	      4.64308918	      1.42946057
      0.79183333	     -0.53072626	     -1.17193881	      0.90933331	     -0.34939726	      0.99602275	      0.30691927	     11.46590195	      5.71127808	     -4.22065699	    -16.77584332	      6.63094492	     -7.81404774	      4.97142415	     20.97744840	     -1.68662356	     -0.35984713	    -69.50728249	     -3.77682530	     -8.83453333	      0.72455004	     -0.43349103	      4.57316019	      1.60473775
      0.79600000	     -0.45284248	     -1.08770746	      0.77483893	     -0.34423450	      0.99680610	      0.30719641	     10.86882171	      5.64296237	     -4.20799108	    -16.43531180	      6.75710747	     -7.46625862	      5.01104848	     21.43451879	     -1.62176325	     -0.41231196	    -69.13487582	     -3.25814973	     -8.99564463	      0.60403085	     -0.57034944	      4.49775238	      1.86767277
      0.80016667	     -0.40730284	     -1.02056246	      0.62240627	     -0.33910241	      0.99748375	      0.30749870	     10.31814467	      5.59398275	     -4.17878146	    -16.11439728	      6.87955118	     -7.16638945	      5.04833657	     21.91867326	     -1.58483050	     -0.48380129	    -68.72938804	     -2.70816945	     -9.16280471	      0.48397073	     -0.67828739	      4.43441436	      2.05269756
      0.80433333	     -0.35954735	     -0.93992471	      0.45820946	     -0.33397758	      0.99813797	      0.30781148	      9.76759675	      5.52848137	     -4.14747072	    -15.79741798	      7.00475837	     -6.86045206	      5.08302813	     22.37966116	     -1.53943411	     -0.57458241	    -68.26386201	     -2.17588269	     -9.30768485	      0.36588551	     -0.78828388	      4.35404531	      2.24380862
      0.80850000	     -0.34551215	     -0.87579004	      0.27637029	     -0.32886821	      0.99868541	      0.30814899	      9.26238010	      5.48131897	     -4.09566778	    -15.49719979	      7.12400104	     -6.60377980	      5.10594915	     22.86509473	     -1.52353830	     -0.68474511	    -67.75968809	     -1.63945610	     -9.44702764	      0.29348055	     -0.85522148	      4.28576908	      2.38170173
      0.81266667	     -0.27930946	     -0.80522723	      0.11860595	     -0.32372450	      0.99931439	      0.30842881	      8.67592762	      5.41762108	     -4.07877609	    -15.14728397	      7.24577028	     -6.24485634	      5.13664440	     23.26856359	     -1.48368103	     -0.76087022	    -67.18509056	     -1.14326450	     -9.50718131	      0.17780235	     -0.99258697	      4.21981613	      2.62132345
      0.81683333	     -0.26097481	     -0.74878938	     -0.08179989	     -0.31862045	      0.99980106	      0.30877615	      8.16413184	      5.37537580	     -4.00837438	    -14.84053931	      7.36177813	     -5.98682725	      5.15466792	     23.71233905	     -1.48567084	     -0.89119864	    -66.57955644	     -0.63819494	     -9.60696409	      0.11780031	     -1.06393347	      4.17258155	      2.74499507
      0.82100000	     -0.22302770	     -0.69040708	     -0.24634512	     -0.31350387	      1.00028303	      0.30906076	      7.61777670	      5.31764074	     -4.00855258	    -14.50167683	      7.48633781	     -5.59944615	      5.18211765	     24.12049549	     -1.46554410	     -0.97605765	    -65.92146600	     -0.17978073	     -9.60210941	      0.00356067	     -1.17294476	      4.11199584	      2.99896264
      0.82516667	     -0.19174545	     -0.63503805	     -0.42912479	     -0.30838920	      1.00072272	      0.30935952	      7.08472341	      5.26272085	     -3.98153073	    -14.17686665	      7.60380481	     -5.24982774	      5.20905562	     24.51473048	     -1.45701265	     -1.08323294	    -65.21279571	      0.26400814	     -9.63271909	     -0.11635996	     -1.26239588	      4.06207771	      3.18853033
      0.82933333	     -0.14743600	     -0.58134789	     -0.61778182	     -0.30326803	      1.00115181	      0.30965887	      6.53497509	      5.20744387	     -3.94972111	    -13.84425504	      7.71384740	     -4.91089809	      5.23440371	     24.87305749	     -1.45377116	     -1.20042890	    -64.45291781	      0.68451845	     -9.64579186	     -0.22950762	     -1.36862755	      4.01527082	      3.36253008
      0.83350000	     -0.12287467	     -0.54325625	     -0.82187967	     -0.29817816	      1.00149780	      0.30997793	      6.01241143	      5.17198458	     -3.87167538	    -13.51863775	      7.81787973	     -4.63628118	      5.25073090	     25.23965478	     -1.47625644	     -1.33066782	    -63.65696480	      1.09084657	     -9.66186584	     -0.28991127	     -1.45497574	      3.99407679	      3.47382975
      0.83766667	     -0.09588668	     -0.51197442	     -1.00362250	     -0.29306550	      1.00180800	      0.31026506	      5.47760797	      5.13708950	     -3.83198098	    -13.17155300	      7.91529983	     -4.31059063	      5.26893980	     25.58780865	     -1.49716568	     -1.43965909	    -62.81754300	      1.46122387	     -9.62270382	     -0.36198397	     -1.54157326	      3.96695575	      3.64582004
      0.84183333	     -0.04522143	     -0.47195239	     -1.15639492	     -0.28794265	      1.00210104	      0.31049053	      4.92175927	      5.07894487	     -3.87248017	    -12.83328846	      8.02537942	     -3.90623745	      5.29854146	     25.89326772	     -1.48903904	     -1.51706091	    -61.92898401	      1.78127557	     -9.57179162	     -0.49019293	     -1.65772621	      3.93069179	      3.87010793
      0.84600000	     -0.00699150	     -0.44129861	     -1.33537241	     -0.28281771	      1.00235958	      0.31075922	      4.37880527	      5.03692005	     -3.84714772	    -12.49195331	      8.12510531	     -3.57375437	      5.32657551	     26.18865778	     -1.50874120	     -1.62989578	    -60.99478553	      2.08271909	     -9.54172824	     -0.60537049	     -1.75333231	      3.90103833	      4.01080486
      0.85016667	      0.01045136	     -0.40343185	     -1.50665875	     -0.27770085	      1.00253219	      0.31096419	      3.88007490	      4.97342829	     -3.87751034	    -12.19165816	      8.22376307	     -3.12907600	      5.39077168	     26.48762519	     -1.50176095	     -1.72028425	    -60.01575561	      2.38118722	     -9.54395112	     -0.88080526	     -1.82965814	      3.87619525	      4.18962726
      0.85433333	      0.03992283	     -0.38771716	     -1.68993099	     -0.27258271	      1.00269966	      0.31123717	      3.33965859	      4.95103539	     -3.77717874	    -11.83344487	      8.32386352	     -2.90418086	      5.41249661	     26.75429806	     -1.54275247	     -1.84119217	    -58.99461216	      2.60592867	     -9.47038383	     -0.95198102	     -1.91915728	      3.86815701	      4.26050993
      0.85850000	      0.09574002	     -0.36234253	     -1.82201827	     -0.26743274	      1.00286024	      0.31140739	      2.77119336	      4.90235683	     -3.79391065	    -11.47657753	      8.40951571	     -2.58518157	      5.44816094	     26.97371735	     -1.53453268	     -1.89886712	    -57.92600301	      2.82375608	     -9.42368842	     -1.07867572	     -2.03619537	      3.85304127	      4.41926899
      0.86266667	      0.10687925	     -0.34613404	     -1.99913533	     -0.26231637	      1.00291111	      0.31164082	      2.26807481	      4.87133222	     -3.70959941	    -11.15087707	      8.50578849	     -2.32627192	      5.47200097	     27.22073346	     -1.56367686	     -2.01058124	    -56.82159384	      3.01592443	     -9.38540391	     -1.14959287	     -2.10192507	      3.84857942	      4.49508260
